<svg xmlns="http://www.w3.org/2000/svg" xmlns:xlink="http://www.w3.org/1999/xlink" width="500" zoomAndPan="magnify" viewBox="0 0 375 374.999991" height="500" preserveAspectRatio="xMidYMid meet" version="1.0"><defs><g/><clipPath id="85e9426635"><path d="M 64 173 L 78 173 L 78 187 L 64 187 Z M 64 173 " clip-rule="nonzero"/></clipPath><clipPath id="5c8d4cfced"><path d="M 91.597656 187.953125 L 68.167969 219.132812 L 35.191406 194.351562 L 58.621094 163.171875 Z M 91.597656 187.953125 " clip-rule="nonzero"/></clipPath><clipPath id="ac21dcdf6c"><path d="M 91.597656 187.953125 L 68.167969 219.132812 L 35.191406 194.351562 L 58.621094 163.171875 Z M 91.597656 187.953125 " clip-rule="nonzero"/></clipPath><clipPath id="c7b9f89adb"><path d="M 91.597656 187.953125 L 68.167969 219.132812 L 35.191406 194.351562 L 58.621094 163.171875 Z M 91.597656 187.953125 " clip-rule="nonzero"/></clipPath><clipPath id="377a49ea58"><path d="M 93.0625 186.8125 L 67.480469 220.855469 L 33.726562 195.492188 L 59.308594 161.449219 Z M 93.0625 186.8125 " clip-rule="nonzero"/></clipPath><clipPath id="0b062597c3"><path d="M 93.0625 186.8125 L 67.480469 220.855469 L 33.726562 195.492188 L 59.308594 161.449219 Z M 93.0625 186.8125 " clip-rule="nonzero"/></clipPath><clipPath id="3090f155f7"><path d="M 37 186 L 51 186 L 51 200 L 37 200 Z M 37 186 " clip-rule="nonzero"/></clipPath><clipPath id="3e7db96468"><path d="M 91.597656 187.953125 L 68.167969 219.132812 L 35.191406 194.351562 L 58.621094 163.171875 Z M 91.597656 187.953125 " clip-rule="nonzero"/></clipPath><clipPath id="b7aba94445"><path d="M 91.597656 187.953125 L 68.167969 219.132812 L 35.191406 194.351562 L 58.621094 163.171875 Z M 91.597656 187.953125 " clip-rule="nonzero"/></clipPath><clipPath id="f5ae14e3ed"><path d="M 91.597656 187.953125 L 68.167969 219.132812 L 35.191406 194.351562 L 58.621094 163.171875 Z M 91.597656 187.953125 " clip-rule="nonzero"/></clipPath><clipPath id="c0c873be05"><path d="M 93.0625 186.8125 L 67.480469 220.855469 L 33.726562 195.492188 L 59.308594 161.449219 Z M 93.0625 186.8125 " clip-rule="nonzero"/></clipPath><clipPath id="b5df83bac2"><path d="M 93.0625 186.8125 L 67.480469 220.855469 L 33.726562 195.492188 L 59.308594 161.449219 Z M 93.0625 186.8125 " clip-rule="nonzero"/></clipPath><clipPath id="cfe878b9a6"><path d="M 64 198 L 78 198 L 78 212 L 64 212 Z M 64 198 " clip-rule="nonzero"/></clipPath><clipPath id="d0e87285fe"><path d="M 91.597656 187.953125 L 68.167969 219.132812 L 35.191406 194.351562 L 58.621094 163.171875 Z M 91.597656 187.953125 " clip-rule="nonzero"/></clipPath><clipPath id="453e87a653"><path d="M 91.597656 187.953125 L 68.167969 219.132812 L 35.191406 194.351562 L 58.621094 163.171875 Z M 91.597656 187.953125 " clip-rule="nonzero"/></clipPath><clipPath id="420f5b94bf"><path d="M 91.597656 187.953125 L 68.167969 219.132812 L 35.191406 194.351562 L 58.621094 163.171875 Z M 91.597656 187.953125 " clip-rule="nonzero"/></clipPath><clipPath id="dccd32e0e2"><path d="M 93.0625 186.8125 L 67.480469 220.855469 L 33.726562 195.492188 L 59.308594 161.449219 Z M 93.0625 186.8125 " clip-rule="nonzero"/></clipPath><clipPath id="e357f8ec45"><path d="M 93.0625 186.8125 L 67.480469 220.855469 L 33.726562 195.492188 L 59.308594 161.449219 Z M 93.0625 186.8125 " clip-rule="nonzero"/></clipPath><clipPath id="e43cf2db14"><path d="M 69 185 L 72 185 L 72 200 L 69 200 Z M 69 185 " clip-rule="nonzero"/></clipPath><clipPath id="cfeca6b744"><path d="M 91.597656 187.953125 L 68.167969 219.132812 L 35.191406 194.351562 L 58.621094 163.171875 Z M 91.597656 187.953125 " clip-rule="nonzero"/></clipPath><clipPath id="e24e3a3c80"><path d="M 91.597656 187.953125 L 68.167969 219.132812 L 35.191406 194.351562 L 58.621094 163.171875 Z M 91.597656 187.953125 " clip-rule="nonzero"/></clipPath><clipPath id="3154abc8b0"><path d="M 91.597656 187.953125 L 68.167969 219.132812 L 35.191406 194.351562 L 58.621094 163.171875 Z M 91.597656 187.953125 " clip-rule="nonzero"/></clipPath><clipPath id="7fa87ea061"><path d="M 93.0625 186.8125 L 67.480469 220.855469 L 33.726562 195.492188 L 59.308594 161.449219 Z M 93.0625 186.8125 " clip-rule="nonzero"/></clipPath><clipPath id="6c09dec91e"><path d="M 93.0625 186.8125 L 67.480469 220.855469 L 33.726562 195.492188 L 59.308594 161.449219 Z M 93.0625 186.8125 " clip-rule="nonzero"/></clipPath><clipPath id="310c636013"><path d="M 47 180 L 66 180 L 66 191 L 47 191 Z M 47 180 " clip-rule="nonzero"/></clipPath><clipPath id="635214a2e1"><path d="M 91.597656 187.953125 L 68.167969 219.132812 L 35.191406 194.351562 L 58.621094 163.171875 Z M 91.597656 187.953125 " clip-rule="nonzero"/></clipPath><clipPath id="1716d7d82c"><path d="M 91.597656 187.953125 L 68.167969 219.132812 L 35.191406 194.351562 L 58.621094 163.171875 Z M 91.597656 187.953125 " clip-rule="nonzero"/></clipPath><clipPath id="d9ebc7d77c"><path d="M 91.597656 187.953125 L 68.167969 219.132812 L 35.191406 194.351562 L 58.621094 163.171875 Z M 91.597656 187.953125 " clip-rule="nonzero"/></clipPath><clipPath id="cc6302f4ba"><path d="M 93.0625 186.8125 L 67.480469 220.855469 L 33.726562 195.492188 L 59.308594 161.449219 Z M 93.0625 186.8125 " clip-rule="nonzero"/></clipPath><clipPath id="4c49a93eba"><path d="M 93.0625 186.8125 L 67.480469 220.855469 L 33.726562 195.492188 L 59.308594 161.449219 Z M 93.0625 186.8125 " clip-rule="nonzero"/></clipPath></defs><g clip-path="url(#85e9426635)"><g clip-path="url(#5c8d4cfced)"><g clip-path="url(#ac21dcdf6c)"><g clip-path="url(#c7b9f89adb)"><g clip-path="url(#377a49ea58)"><g clip-path="url(#0b062597c3)"><path fill="#000000" d="M 74.449219 175.074219 C 75.144531 175.59375 75.722656 176.25 76.15625 177 C 76.574219 177.722656 76.847656 178.523438 76.960938 179.351562 C 77.074219 180.183594 77.027344 181.03125 76.824219 181.84375 C 76.609375 182.691406 76.226562 183.484375 75.703125 184.183594 C 75.179688 184.878906 74.523438 185.464844 73.769531 185.90625 C 73.042969 186.332031 72.246094 186.609375 71.414062 186.730469 C 70.585938 186.855469 69.742188 186.8125 68.929688 186.613281 C 68.089844 186.40625 67.296875 186.03125 66.605469 185.511719 C 65.914062 184.992188 65.335938 184.339844 64.902344 183.589844 C 64.484375 182.863281 64.210938 182.066406 64.097656 181.234375 C 63.984375 180.402344 64.03125 179.558594 64.234375 178.742188 C 64.449219 177.898438 64.832031 177.101562 65.355469 176.40625 C 65.878906 175.707031 66.535156 175.121094 67.289062 174.679688 C 68.015625 174.257812 68.8125 173.976562 69.644531 173.855469 C 70.472656 173.734375 71.316406 173.773438 72.128906 173.972656 C 72.96875 174.179688 73.757812 174.554688 74.449219 175.074219 Z M 73.351562 176.539062 C 73.851562 176.910156 74.265625 177.382812 74.578125 177.921875 C 74.878906 178.441406 75.074219 179.019531 75.15625 179.617188 C 75.238281 180.214844 75.207031 180.824219 75.058594 181.410156 C 74.90625 182.019531 74.628906 182.589844 74.253906 183.09375 C 73.875 183.59375 73.402344 184.015625 72.863281 184.332031 C 72.339844 184.636719 71.765625 184.839844 71.167969 184.925781 C 70.570312 185.015625 69.960938 184.984375 69.375 184.84375 C 68.773438 184.695312 68.203125 184.421875 67.707031 184.050781 C 67.207031 183.675781 66.792969 183.207031 66.480469 182.667969 C 66.179688 182.144531 65.984375 181.570312 65.902344 180.96875 C 65.820312 180.371094 65.851562 179.761719 66 179.175781 C 66.152344 178.566406 66.425781 177.996094 66.804688 177.496094 C 67.183594 176.992188 67.652344 176.570312 68.195312 176.253906 C 68.71875 175.949219 69.292969 175.746094 69.890625 175.660156 C 70.488281 175.574219 71.097656 175.601562 71.679688 175.746094 C 72.285156 175.894531 72.855469 176.164062 73.351562 176.539062 Z M 73.351562 176.539062 " fill-opacity="1" fill-rule="evenodd"/></g></g></g></g></g></g><g clip-path="url(#3090f155f7)"><g clip-path="url(#3e7db96468)"><g clip-path="url(#b7aba94445)"><g clip-path="url(#f5ae14e3ed)"><g clip-path="url(#c0c873be05)"><g clip-path="url(#b5df83bac2)"><path fill="#000000" d="M 48.214844 187.796875 C 48.90625 188.316406 49.484375 188.972656 49.917969 189.722656 C 50.335938 190.445312 50.609375 191.246094 50.722656 192.074219 C 50.835938 192.90625 50.792969 193.753906 50.585938 194.570312 C 50.371094 195.414062 49.992188 196.207031 49.464844 196.90625 C 48.941406 197.601562 48.285156 198.191406 47.535156 198.628906 C 46.808594 199.054688 46.007812 199.335938 45.175781 199.453125 C 44.347656 199.578125 43.503906 199.535156 42.691406 199.335938 C 41.851562 199.128906 41.0625 198.757812 40.371094 198.234375 C 39.679688 197.714844 39.097656 197.0625 38.664062 196.3125 C 38.25 195.585938 37.976562 194.789062 37.859375 193.957031 C 37.746094 193.125 37.792969 192.28125 38 191.464844 C 38.210938 190.621094 38.59375 189.824219 39.117188 189.128906 C 39.640625 188.429688 40.300781 187.84375 41.050781 187.402344 C 41.777344 186.980469 42.578125 186.699219 43.40625 186.578125 C 44.234375 186.457031 45.078125 186.496094 45.890625 186.695312 C 46.730469 186.902344 47.523438 187.277344 48.214844 187.796875 Z M 47.113281 189.261719 C 47.613281 189.632812 48.03125 190.105469 48.339844 190.644531 C 48.640625 191.167969 48.839844 191.742188 48.921875 192.339844 C 49.003906 192.9375 48.96875 193.546875 48.820312 194.132812 C 48.667969 194.742188 48.394531 195.3125 48.015625 195.816406 C 47.640625 196.316406 47.167969 196.738281 46.625 197.054688 C 46.101562 197.363281 45.527344 197.5625 44.929688 197.648438 C 44.332031 197.738281 43.726562 197.710938 43.140625 197.566406 C 42.535156 197.417969 41.964844 197.148438 41.46875 196.773438 C 40.972656 196.398438 40.554688 195.929688 40.242188 195.390625 C 39.941406 194.867188 39.746094 194.292969 39.664062 193.691406 C 39.582031 193.09375 39.617188 192.484375 39.761719 191.898438 C 39.917969 191.292969 40.191406 190.71875 40.570312 190.21875 C 40.945312 189.714844 41.417969 189.292969 41.957031 188.976562 C 42.480469 188.671875 43.058594 188.46875 43.65625 188.382812 C 44.253906 188.296875 44.859375 188.324219 45.445312 188.46875 C 46.050781 188.617188 46.617188 188.886719 47.113281 189.261719 Z M 47.113281 189.261719 " fill-opacity="1" fill-rule="evenodd"/></g></g></g></g></g></g><g clip-path="url(#cfe878b9a6)"><g clip-path="url(#d0e87285fe)"><g clip-path="url(#453e87a653)"><g clip-path="url(#420f5b94bf)"><g clip-path="url(#dccd32e0e2)"><g clip-path="url(#e357f8ec45)"><path fill="#000000" d="M 74.707031 199.652344 C 75.398438 200.171875 75.980469 200.824219 76.414062 201.574219 C 76.832031 202.300781 77.105469 203.101562 77.21875 203.929688 C 77.332031 204.761719 77.285156 205.605469 77.082031 206.421875 C 76.867188 207.265625 76.484375 208.0625 75.960938 208.757812 C 75.4375 209.457031 74.78125 210.042969 74.027344 210.484375 C 73.300781 210.910156 72.503906 211.1875 71.671875 211.308594 C 70.84375 211.429688 70 211.390625 69.1875 211.191406 C 68.347656 210.984375 67.554688 210.609375 66.863281 210.089844 C 66.171875 209.570312 65.59375 208.917969 65.160156 208.164062 C 64.742188 207.441406 64.46875 206.640625 64.355469 205.8125 C 64.242188 204.980469 64.289062 204.132812 64.492188 203.320312 C 64.707031 202.472656 65.085938 201.679688 65.613281 200.980469 C 66.136719 200.285156 66.792969 199.699219 67.546875 199.257812 C 68.269531 198.832031 69.070312 198.554688 69.902344 198.433594 C 70.730469 198.308594 71.574219 198.351562 72.386719 198.550781 C 73.226562 198.757812 74.015625 199.132812 74.707031 199.652344 Z M 73.609375 201.117188 C 74.105469 201.488281 74.523438 201.960938 74.835938 202.5 C 75.136719 203.019531 75.332031 203.597656 75.414062 204.195312 C 75.496094 204.792969 75.464844 205.402344 75.316406 205.988281 C 75.164062 206.597656 74.886719 207.167969 74.511719 207.667969 C 74.132812 208.171875 73.660156 208.59375 73.121094 208.910156 C 72.597656 209.214844 72.019531 209.417969 71.425781 209.503906 C 70.828125 209.59375 70.21875 209.5625 69.632812 209.421875 C 69.03125 209.269531 68.460938 209 67.964844 208.628906 C 67.464844 208.253906 67.050781 207.78125 66.738281 207.242188 C 66.4375 206.722656 66.242188 206.144531 66.160156 205.546875 C 66.074219 204.949219 66.109375 204.339844 66.257812 203.753906 C 66.410156 203.144531 66.683594 202.574219 67.0625 202.074219 C 67.4375 201.570312 67.914062 201.148438 68.453125 200.832031 C 68.976562 200.527344 69.550781 200.324219 70.148438 200.238281 C 70.746094 200.148438 71.355469 200.179688 71.9375 200.320312 C 72.542969 200.472656 73.113281 200.742188 73.609375 201.117188 Z M 73.609375 201.117188 " fill-opacity="1" fill-rule="evenodd"/></g></g></g></g></g></g><g clip-path="url(#e43cf2db14)"><g clip-path="url(#cfeca6b744)"><g clip-path="url(#e24e3a3c80)"><g clip-path="url(#3154abc8b0)"><g clip-path="url(#7fa87ea061)"><g clip-path="url(#6c09dec91e)"><path fill="#000000" d="M 69.894531 186.105469 L 69.898438 185.195312 L 71.71875 185.191406 L 71.710938 186.105469 L 71.628906 198.996094 L 71.625 199.910156 L 69.804688 199.910156 L 69.8125 199 Z M 69.894531 186.105469 " fill-opacity="1" fill-rule="nonzero"/></g></g></g></g></g></g><g clip-path="url(#310c636013)"><g clip-path="url(#635214a2e1)"><g clip-path="url(#1716d7d82c)"><g clip-path="url(#d9ebc7d77c)"><g clip-path="url(#cc6302f4ba)"><g clip-path="url(#4c49a93eba)"><path fill="#000000" d="M 49.546875 190.332031 L 48.734375 190.753906 L 47.90625 189.136719 L 48.714844 188.714844 L 64.351562 180.542969 L 65.164062 180.121094 L 65.992188 181.738281 L 65.183594 182.160156 Z M 49.546875 190.332031 " fill-opacity="1" fill-rule="nonzero"/></g></g></g></g></g></g><g fill="#000000" fill-opacity="1"><g transform="translate(80.09061, 205.733816)"><g><path d="M 16.0625 0.53125 C 13.394531 0.53125 11.035156 -0.0195312 8.984375 -1.125 C 6.941406 -2.238281 5.34375 -3.867188 4.1875 -6.015625 C 3.039062 -8.171875 2.46875 -10.753906 2.46875 -13.765625 C 2.46875 -16.796875 3.039062 -19.382812 4.1875 -21.53125 C 5.34375 -23.6875 6.9375 -25.316406 8.96875 -26.421875 C 11 -27.523438 13.320312 -28.078125 15.9375 -28.078125 C 21.75 -28.078125 25.472656 -25.972656 27.109375 -21.765625 L 22.359375 -18.359375 L 21.84375 -18.359375 C 21.269531 -19.660156 20.53125 -20.628906 19.625 -21.265625 C 18.71875 -21.898438 17.488281 -22.21875 15.9375 -22.21875 C 13.9375 -22.21875 12.378906 -21.523438 11.265625 -20.140625 C 10.148438 -18.753906 9.59375 -16.628906 9.59375 -13.765625 C 9.59375 -10.929688 10.160156 -8.816406 11.296875 -7.421875 C 12.429688 -6.035156 14.019531 -5.34375 16.0625 -5.34375 C 17.5625 -5.34375 18.832031 -5.742188 19.875 -6.546875 C 20.914062 -7.359375 21.660156 -8.523438 22.109375 -10.046875 L 22.640625 -10.09375 L 27.5625 -7.390625 C 26.863281 -5.054688 25.566406 -3.148438 23.671875 -1.671875 C 21.785156 -0.203125 19.25 0.53125 16.0625 0.53125 Z M 16.0625 0.53125 "/></g></g></g><g fill="#000000" fill-opacity="1"><g transform="translate(108.503236, 205.733816)"><g><path d="M 16.015625 0.53125 C 13.316406 0.53125 10.945312 -0.0195312 8.90625 -1.125 C 6.863281 -2.238281 5.28125 -3.863281 4.15625 -6 C 3.03125 -8.144531 2.46875 -10.734375 2.46875 -13.765625 C 2.46875 -16.796875 3.03125 -19.382812 4.15625 -21.53125 C 5.28125 -23.6875 6.863281 -25.316406 8.90625 -26.421875 C 10.945312 -27.523438 13.316406 -28.078125 16.015625 -28.078125 C 18.710938 -28.078125 21.082031 -27.523438 23.125 -26.421875 C 25.164062 -25.316406 26.75 -23.6875 27.875 -21.53125 C 29.007812 -19.382812 29.578125 -16.796875 29.578125 -13.765625 C 29.578125 -10.734375 29.007812 -8.144531 27.875 -6 C 26.75 -3.863281 25.164062 -2.238281 23.125 -1.125 C 21.082031 -0.0195312 18.710938 0.53125 16.015625 0.53125 Z M 16.015625 -5.34375 C 20.296875 -5.34375 22.4375 -8.148438 22.4375 -13.765625 C 22.4375 -16.679688 21.882812 -18.816406 20.78125 -20.171875 C 19.6875 -21.535156 18.097656 -22.21875 16.015625 -22.21875 C 11.734375 -22.21875 9.59375 -19.398438 9.59375 -13.765625 C 9.59375 -8.148438 11.734375 -5.34375 16.015625 -5.34375 Z M 16.015625 -5.34375 "/></g></g></g><g fill="#000000" fill-opacity="1"><g transform="translate(140.539275, 205.733816)"><g><path d="M 3.96875 0 L 3.96875 -27.5625 L 10.625 -27.5625 L 10.625 -23.515625 L 11.140625 -23.390625 C 12.859375 -26.515625 15.640625 -28.078125 19.484375 -28.078125 C 22.671875 -28.078125 25.007812 -27.210938 26.5 -25.484375 C 27.988281 -23.753906 28.734375 -21.234375 28.734375 -17.921875 L 28.734375 0 L 21.8125 0 L 21.8125 -17.0625 C 21.8125 -18.894531 21.441406 -20.210938 20.703125 -21.015625 C 19.972656 -21.828125 18.800781 -22.234375 17.1875 -22.234375 C 15.207031 -22.234375 13.660156 -21.59375 12.546875 -20.3125 C 11.441406 -19.03125 10.890625 -17.015625 10.890625 -14.265625 L 10.890625 0 Z M 3.96875 0 "/></g></g></g><g fill="#000000" fill-opacity="1"><g transform="translate(172.825206, 205.733816)"><g><path d="M 3.96875 0 L 3.96875 -27.5625 L 10.625 -27.5625 L 10.625 -23.515625 L 11.140625 -23.390625 C 12.859375 -26.515625 15.640625 -28.078125 19.484375 -28.078125 C 22.671875 -28.078125 25.007812 -27.210938 26.5 -25.484375 C 27.988281 -23.753906 28.734375 -21.234375 28.734375 -17.921875 L 28.734375 0 L 21.8125 0 L 21.8125 -17.0625 C 21.8125 -18.894531 21.441406 -20.210938 20.703125 -21.015625 C 19.972656 -21.828125 18.800781 -22.234375 17.1875 -22.234375 C 15.207031 -22.234375 13.660156 -21.59375 12.546875 -20.3125 C 11.441406 -19.03125 10.890625 -17.015625 10.890625 -14.265625 L 10.890625 0 Z M 3.96875 0 "/></g></g></g><g fill="#000000" fill-opacity="1"><g transform="translate(205.111137, 205.733816)"><g><path d="M 27.234375 -12.21875 L 9.515625 -12.21875 C 9.710938 -9.820312 10.394531 -8.078125 11.5625 -6.984375 C 12.726562 -5.890625 14.320312 -5.34375 16.34375 -5.34375 C 17.925781 -5.34375 19.207031 -5.640625 20.1875 -6.234375 C 21.164062 -6.828125 21.957031 -7.722656 22.5625 -8.921875 L 23.09375 -8.921875 L 27.6875 -5.96875 C 26.78125 -4.039062 25.421875 -2.472656 23.609375 -1.265625 C 21.796875 -0.0664062 19.375 0.53125 16.34375 0.53125 C 13.488281 0.53125 11.023438 -0.0078125 8.953125 -1.09375 C 6.878906 -2.175781 5.28125 -3.785156 4.15625 -5.921875 C 3.03125 -8.066406 2.46875 -10.679688 2.46875 -13.765625 C 2.46875 -16.898438 3.054688 -19.539062 4.234375 -21.6875 C 5.421875 -23.832031 7.019531 -25.429688 9.03125 -26.484375 C 11.050781 -27.546875 13.320312 -28.078125 15.84375 -28.078125 C 19.738281 -28.078125 22.722656 -27.046875 24.796875 -24.984375 C 26.867188 -22.921875 27.90625 -19.890625 27.90625 -15.890625 C 27.90625 -14.441406 27.859375 -13.316406 27.765625 -12.515625 Z M 21.28125 -16.6875 C 21.21875 -18.789062 20.734375 -20.320312 19.828125 -21.28125 C 18.921875 -22.238281 17.59375 -22.71875 15.84375 -22.71875 C 12.34375 -22.71875 10.285156 -20.707031 9.671875 -16.6875 Z M 21.28125 -16.6875 "/></g></g></g><g fill="#000000" fill-opacity="1"><g transform="translate(235.073088, 205.733816)"><g><path d="M 16.0625 0.53125 C 13.394531 0.53125 11.035156 -0.0195312 8.984375 -1.125 C 6.941406 -2.238281 5.34375 -3.867188 4.1875 -6.015625 C 3.039062 -8.171875 2.46875 -10.753906 2.46875 -13.765625 C 2.46875 -16.796875 3.039062 -19.382812 4.1875 -21.53125 C 5.34375 -23.6875 6.9375 -25.316406 8.96875 -26.421875 C 11 -27.523438 13.320312 -28.078125 15.9375 -28.078125 C 21.75 -28.078125 25.472656 -25.972656 27.109375 -21.765625 L 22.359375 -18.359375 L 21.84375 -18.359375 C 21.269531 -19.660156 20.53125 -20.628906 19.625 -21.265625 C 18.71875 -21.898438 17.488281 -22.21875 15.9375 -22.21875 C 13.9375 -22.21875 12.378906 -21.523438 11.265625 -20.140625 C 10.148438 -18.753906 9.59375 -16.628906 9.59375 -13.765625 C 9.59375 -10.929688 10.160156 -8.816406 11.296875 -7.421875 C 12.429688 -6.035156 14.019531 -5.34375 16.0625 -5.34375 C 17.5625 -5.34375 18.832031 -5.742188 19.875 -6.546875 C 20.914062 -7.359375 21.660156 -8.523438 22.109375 -10.046875 L 22.640625 -10.09375 L 27.5625 -7.390625 C 26.863281 -5.054688 25.566406 -3.148438 23.671875 -1.671875 C 21.785156 -0.203125 19.25 0.53125 16.0625 0.53125 Z M 16.0625 0.53125 "/></g></g></g><g fill="#000000" fill-opacity="1"><g transform="translate(263.485713, 205.733816)"><g><path d="M 19.015625 -6.578125 L 20.8125 -1.453125 C 20.0625 -0.835938 19.117188 -0.351562 17.984375 0 C 16.859375 0.351562 15.578125 0.53125 14.140625 0.53125 C 11.160156 0.53125 8.894531 -0.28125 7.34375 -1.90625 C 5.789062 -3.53125 5.015625 -5.894531 5.015625 -9 L 5.015625 -22.09375 L 0.828125 -22.09375 L 0.828125 -27.578125 L 5.015625 -27.578125 L 5.015625 -32.953125 L 11.9375 -34.078125 L 11.9375 -27.578125 L 19.765625 -27.578125 L 19.765625 -22.09375 L 11.9375 -22.09375 L 11.9375 -9.5 C 11.9375 -8.132812 12.21875 -7.140625 12.78125 -6.515625 C 13.351562 -5.890625 14.179688 -5.578125 15.265625 -5.578125 C 16.492188 -5.578125 17.566406 -5.910156 18.484375 -6.578125 Z M 19.015625 -6.578125 "/></g></g></g><g fill="#000000" fill-opacity="1"><g transform="translate(284.901388, 205.733816)"><g><path d="M 22.140625 11.171875 L 22.140625 -3.296875 L 21.609375 -3.390625 C 19.941406 -0.773438 17.269531 0.53125 13.59375 0.53125 C 11.425781 0.53125 9.503906 0.00390625 7.828125 -1.046875 C 6.160156 -2.097656 4.847656 -3.6875 3.890625 -5.8125 C 2.941406 -7.945312 2.46875 -10.570312 2.46875 -13.6875 C 2.46875 -16.875 2.953125 -19.539062 3.921875 -21.6875 C 4.898438 -23.832031 6.25 -25.429688 7.96875 -26.484375 C 9.695312 -27.546875 11.695312 -28.078125 13.96875 -28.078125 C 15.6875 -28.078125 17.179688 -27.757812 18.453125 -27.125 C 19.722656 -26.5 20.773438 -25.507812 21.609375 -24.15625 L 22.140625 -24.265625 L 22.140625 -27.5625 L 29.0625 -27.5625 L 29.0625 11.171875 Z M 15.859375 -5.34375 C 17.816406 -5.34375 19.359375 -6.035156 20.484375 -7.421875 C 21.617188 -8.804688 22.1875 -10.894531 22.1875 -13.6875 C 22.1875 -16.550781 21.617188 -18.6875 20.484375 -20.09375 C 19.359375 -21.507812 17.816406 -22.21875 15.859375 -22.21875 C 13.816406 -22.21875 12.257812 -21.53125 11.1875 -20.15625 C 10.125 -18.789062 9.59375 -16.632812 9.59375 -13.6875 C 9.59375 -8.125 11.679688 -5.34375 15.859375 -5.34375 Z M 15.859375 -5.34375 "/></g></g></g><g fill="#000000" fill-opacity="1"><g transform="translate(317.936991, 205.733816)"><g><path d="M 3.96875 0 L 3.96875 -27.5625 L 10.6875 -27.5625 L 10.6875 -23.46875 L 11.21875 -23.359375 C 11.882812 -24.890625 12.757812 -26.015625 13.84375 -26.734375 C 14.925781 -27.453125 16.242188 -27.8125 17.796875 -27.8125 C 19.359375 -27.8125 20.546875 -27.546875 21.359375 -27.015625 L 20.1875 -21.03125 L 19.671875 -20.9375 C 19.210938 -21.125 18.773438 -21.257812 18.359375 -21.34375 C 17.941406 -21.425781 17.4375 -21.46875 16.84375 -21.46875 C 14.90625 -21.46875 13.425781 -20.785156 12.40625 -19.421875 C 11.394531 -18.066406 10.890625 -15.890625 10.890625 -12.890625 L 10.890625 0 Z M 3.96875 0 "/></g></g></g></svg>